<svg width="189" height="40" viewBox="0 0 189 40" fill="none" xmlns="http://www.w3.org/2000/svg">
<path fill-rule="evenodd" clip-rule="evenodd" d="M7.5 10C7.5 8.61929 8.61929 7.5 10 7.5H13.75C15.1307 7.5 16.25 8.61929 16.25 10V30C16.25 31.3807 15.1307 32.5 13.75 32.5H10C8.61929 32.5 7.5 31.3807 7.5 30V10ZM13.75 10H10V30H13.75V10Z" fill="#00B37E"/>
<path fill-rule="evenodd" clip-rule="evenodd" d="M23.75 10C23.75 8.61929 24.8693 7.5 26.25 7.5H30C31.3807 7.5 32.5 8.61929 32.5 10V30C32.5 31.3807 31.3807 32.5 30 32.5H26.25C24.8693 32.5 23.75 31.3807 23.75 30V10ZM30 10H26.25V30H30V10Z" fill="#00B37E"/>
<path fill-rule="evenodd" clip-rule="evenodd" d="M30 12.5C30 11.8096 30.5596 11.25 31.25 11.25H35C35.663 11.25 36.2989 11.5134 36.7678 11.9822C37.2366 12.4511 37.5 13.087 37.5 13.75V26.25C37.5 26.913 37.2366 27.5489 36.7678 28.0178C36.2989 28.4866 35.663 28.75 35 28.75H31.25C30.5596 28.75 30 28.1904 30 27.5C30 26.8096 30.5596 26.25 31.25 26.25H35L35 13.75L31.25 13.75C30.5596 13.75 30 13.1904 30 12.5Z" fill="#00B37E"/>
<path fill-rule="evenodd" clip-rule="evenodd" d="M3.23223 11.9822C3.70107 11.5134 4.33696 11.25 5 11.25H8.75C9.44036 11.25 10 11.8096 10 12.5C10 13.1904 9.44036 13.75 8.75 13.75L5 13.75V26.25H8.75C9.44036 26.25 10 26.8096 10 27.5C10 28.1904 9.44036 28.75 8.75 28.75H5C4.33696 28.75 3.70108 28.4866 3.23223 28.0178C2.76339 27.5489 2.5 26.913 2.5 26.25V13.75C2.5 13.087 2.76339 12.4511 3.23223 11.9822Z" fill="#00B37E"/>
<path fill-rule="evenodd" clip-rule="evenodd" d="M13.75 20C13.75 19.3096 14.3096 18.75 15 18.75H25C25.6904 18.75 26.25 19.3096 26.25 20C26.25 20.6904 25.6904 21.25 25 21.25H15C14.3096 21.25 13.75 20.6904 13.75 20Z" fill="#00B37E"/>
<path fill-rule="evenodd" clip-rule="evenodd" d="M35 20C35 19.3096 35.5596 18.75 36.25 18.75H38.75C39.4404 18.75 40 19.3096 40 20C40 20.6904 39.4404 21.25 38.75 21.25H36.25C35.5596 21.25 35 20.6904 35 20Z" fill="#00B37E"/>
<path fill-rule="evenodd" clip-rule="evenodd" d="M0 20C0 19.3096 0.559644 18.75 1.25 18.75H3.75C4.44036 18.75 5 19.3096 5 20C5 20.6904 4.44036 21.25 3.75 21.25H1.25C0.559644 21.25 0 20.6904 0 20Z" fill="#00B37E"/>
<path d="M58.4707 9.59375V29.5H54.3828V9.59375H58.4707ZM71.4316 14.707H75V29.0078C75 30.3568 74.6992 31.5007 74.0977 32.4395C73.5052 33.3874 72.6758 34.1029 71.6094 34.5859C70.543 35.0781 69.3034 35.3242 67.8906 35.3242C67.2708 35.3242 66.6146 35.2422 65.9219 35.0781C65.2383 34.9141 64.582 34.6589 63.9531 34.3125C63.3333 33.9661 62.8138 33.5286 62.3945 33L64.1309 30.6758C64.5866 31.2044 65.1152 31.6146 65.7168 31.9062C66.3184 32.207 66.9837 32.3574 67.7129 32.3574C68.4238 32.3574 69.0254 32.2253 69.5176 31.9609C70.0098 31.7057 70.388 31.3275 70.6523 30.8262C70.9167 30.334 71.0488 29.737 71.0488 29.0352V18.125L71.4316 14.707ZM61.4785 22.2812V21.9941C61.4785 20.8639 61.6152 19.8385 61.8887 18.918C62.1712 17.9883 62.5677 17.1908 63.0781 16.5254C63.5977 15.86 64.2266 15.3451 64.9648 14.9805C65.7031 14.6159 66.5371 14.4336 67.4668 14.4336C68.4512 14.4336 69.276 14.6159 69.9414 14.9805C70.6068 15.3451 71.1536 15.8646 71.582 16.5391C72.0104 17.2044 72.3431 17.9928 72.5801 18.9043C72.8262 19.8066 73.0176 20.7956 73.1543 21.8711V22.5C73.0176 23.5299 72.8125 24.487 72.5391 25.3711C72.2656 26.2552 71.9056 27.0299 71.459 27.6953C71.0124 28.3516 70.4564 28.862 69.791 29.2266C69.1348 29.5911 68.3509 29.7734 67.4395 29.7734C66.528 29.7734 65.7031 29.5866 64.9648 29.2129C64.2357 28.8392 63.6113 28.3151 63.0918 27.6406C62.5723 26.9661 62.1712 26.1732 61.8887 25.2617C61.6152 24.3503 61.4785 23.3568 61.4785 22.2812ZM65.416 21.9941V22.2812C65.416 22.8919 65.4753 23.4616 65.5938 23.9902C65.7122 24.5189 65.8945 24.9883 66.1406 25.3984C66.3958 25.7995 66.7103 26.1139 67.084 26.3418C67.4668 26.5605 67.918 26.6699 68.4375 26.6699C69.1576 26.6699 69.7454 26.5195 70.2012 26.2188C70.6569 25.9089 70.9987 25.485 71.2266 24.9473C71.4544 24.4095 71.5866 23.7897 71.623 23.0879V21.2969C71.6048 20.7227 71.5273 20.2077 71.3906 19.752C71.2539 19.2871 71.0625 18.8906 70.8164 18.5625C70.5703 18.2344 70.2513 17.9792 69.8594 17.7969C69.4674 17.6146 69.0026 17.5234 68.4648 17.5234C67.9453 17.5234 67.4941 17.6419 67.1113 17.8789C66.7376 18.1068 66.4232 18.4212 66.168 18.8223C65.9219 19.2233 65.735 19.6973 65.6074 20.2441C65.4798 20.7819 65.416 21.3652 65.416 21.9941ZM81.918 17.8652V29.5H77.9805V14.707H81.6719L81.918 17.8652ZM81.3438 21.584H80.2773C80.2773 20.4902 80.4186 19.5059 80.7012 18.6309C80.9837 17.7467 81.3802 16.9948 81.8906 16.375C82.401 15.7461 83.0072 15.2676 83.709 14.9395C84.4199 14.6022 85.2129 14.4336 86.0879 14.4336C86.7806 14.4336 87.4141 14.5339 87.9883 14.7344C88.5625 14.9349 89.0547 15.2539 89.4648 15.6914C89.8841 16.1289 90.2031 16.7077 90.4219 17.4277C90.6497 18.1478 90.7637 19.0273 90.7637 20.0664V29.5H86.7988V20.0527C86.7988 19.3965 86.7077 18.8861 86.5254 18.5215C86.3431 18.1569 86.0742 17.9017 85.7188 17.7559C85.3724 17.6009 84.944 17.5234 84.4336 17.5234C83.9049 17.5234 83.4447 17.6283 83.0527 17.8379C82.6699 18.0475 82.3509 18.3392 82.0957 18.7129C81.8496 19.0775 81.6628 19.5059 81.5352 19.998C81.4076 20.4902 81.3438 21.0189 81.3438 21.584ZM97.9141 14.707V29.5H93.9629V14.707H97.9141ZM93.7168 10.8516C93.7168 10.2773 93.9173 9.80339 94.3184 9.42969C94.7194 9.05599 95.2572 8.86914 95.9316 8.86914C96.597 8.86914 97.1302 9.05599 97.5312 9.42969C97.9414 9.80339 98.1465 10.2773 98.1465 10.8516C98.1465 11.4258 97.9414 11.8997 97.5312 12.2734C97.1302 12.6471 96.597 12.834 95.9316 12.834C95.2572 12.834 94.7194 12.6471 94.3184 12.2734C93.9173 11.8997 93.7168 11.4258 93.7168 10.8516ZM108.414 14.707V17.4961H99.8008V14.707H108.414ZM101.934 11.0566H105.871V25.043C105.871 25.4714 105.926 25.7995 106.035 26.0273C106.154 26.2552 106.327 26.4147 106.555 26.5059C106.783 26.5879 107.07 26.6289 107.416 26.6289C107.662 26.6289 107.881 26.6198 108.072 26.6016C108.273 26.5742 108.441 26.5469 108.578 26.5195L108.592 29.418C108.255 29.5273 107.89 29.6139 107.498 29.6777C107.106 29.7415 106.673 29.7734 106.199 29.7734C105.333 29.7734 104.577 29.6322 103.93 29.3496C103.292 29.0579 102.799 28.5931 102.453 27.9551C102.107 27.3171 101.934 26.4785 101.934 25.4395V11.0566ZM117.465 29.7734C116.316 29.7734 115.286 29.5911 114.375 29.2266C113.464 28.8529 112.689 28.3379 112.051 27.6816C111.422 27.0254 110.939 26.2643 110.602 25.3984C110.264 24.5234 110.096 23.5938 110.096 22.6094V22.0625C110.096 20.9414 110.255 19.916 110.574 18.9863C110.893 18.0566 111.349 17.25 111.941 16.5664C112.543 15.8828 113.272 15.3587 114.129 14.9941C114.986 14.6204 115.952 14.4336 117.027 14.4336C118.076 14.4336 119.005 14.6068 119.816 14.9531C120.628 15.2995 121.307 15.7917 121.854 16.4297C122.41 17.0677 122.829 17.8333 123.111 18.7266C123.394 19.6107 123.535 20.5951 123.535 21.6797V23.3203H111.777V20.6953H119.666V20.3945C119.666 19.8477 119.566 19.36 119.365 18.9316C119.174 18.4941 118.882 18.1478 118.49 17.8926C118.098 17.6374 117.597 17.5098 116.986 17.5098C116.467 17.5098 116.02 17.6237 115.646 17.8516C115.273 18.0794 114.967 18.3984 114.73 18.8086C114.503 19.2188 114.329 19.7018 114.211 20.2578C114.102 20.8047 114.047 21.4062 114.047 22.0625V22.6094C114.047 23.2018 114.129 23.7487 114.293 24.25C114.466 24.7513 114.708 25.1842 115.018 25.5488C115.337 25.9134 115.719 26.196 116.166 26.3965C116.622 26.597 117.137 26.6973 117.711 26.6973C118.422 26.6973 119.083 26.5605 119.693 26.2871C120.313 26.0046 120.846 25.5807 121.293 25.0156L123.207 27.0938C122.897 27.5404 122.473 27.9688 121.936 28.3789C121.407 28.7891 120.769 29.1263 120.021 29.3906C119.274 29.6458 118.422 29.7734 117.465 29.7734ZM148.773 19.0957V26.9844C148.464 27.3581 147.985 27.7637 147.338 28.2012C146.691 28.6296 145.857 28.9987 144.836 29.3086C143.815 29.6185 142.58 29.7734 141.131 29.7734C139.846 29.7734 138.674 29.5638 137.617 29.1445C136.56 28.7161 135.648 28.0918 134.883 27.2715C134.126 26.4512 133.543 25.4486 133.133 24.2637C132.723 23.0697 132.518 21.707 132.518 20.1758V18.9316C132.518 17.4004 132.714 16.0378 133.105 14.8438C133.507 13.6497 134.076 12.6426 134.814 11.8223C135.553 11.002 136.432 10.3776 137.453 9.94922C138.474 9.52083 139.609 9.30664 140.857 9.30664C142.589 9.30664 144.011 9.58919 145.123 10.1543C146.235 10.7103 147.083 11.485 147.666 12.4785C148.258 13.4629 148.623 14.5931 148.76 15.8691H144.781C144.681 15.1947 144.49 14.6068 144.207 14.1055C143.924 13.6042 143.519 13.2122 142.99 12.9297C142.471 12.6471 141.796 12.5059 140.967 12.5059C140.283 12.5059 139.673 12.6471 139.135 12.9297C138.606 13.2031 138.16 13.6087 137.795 14.1465C137.43 14.6842 137.152 15.3496 136.961 16.1426C136.77 16.9355 136.674 17.8561 136.674 18.9043V20.1758C136.674 21.2148 136.774 22.1354 136.975 22.9375C137.175 23.7305 137.471 24.4004 137.863 24.9473C138.264 25.485 138.757 25.8906 139.34 26.1641C139.923 26.4375 140.602 26.5742 141.377 26.5742C142.024 26.5742 142.562 26.5195 142.99 26.4102C143.428 26.3008 143.779 26.1686 144.043 26.0137C144.316 25.8496 144.526 25.6947 144.672 25.5488V22.0215H140.926V19.0957H148.773ZM156.225 27.832L160.148 14.707H164.373L158.426 31.7285C158.298 32.1022 158.125 32.5033 157.906 32.9316C157.697 33.36 157.41 33.7656 157.045 34.1484C156.689 34.5404 156.238 34.8594 155.691 35.1055C155.154 35.3516 154.493 35.4746 153.709 35.4746C153.335 35.4746 153.03 35.4518 152.793 35.4062C152.556 35.3607 152.273 35.2969 151.945 35.2148V32.3301C152.046 32.3301 152.15 32.3301 152.26 32.3301C152.369 32.3392 152.474 32.3438 152.574 32.3438C153.094 32.3438 153.518 32.2845 153.846 32.166C154.174 32.0475 154.438 31.8652 154.639 31.6191C154.839 31.3822 154.999 31.0723 155.117 30.6895L156.225 27.832ZM154.584 14.707L157.797 25.4258L158.357 29.5957L155.678 29.8828L150.359 14.707H154.584ZM169.883 17.7695V29.5H165.932V14.707H169.637L169.883 17.7695ZM169.336 21.584H168.242C168.242 20.554 168.365 19.6061 168.611 18.7402C168.867 17.8652 169.236 17.1087 169.719 16.4707C170.211 15.8236 170.817 15.3223 171.537 14.9668C172.257 14.6113 173.091 14.4336 174.039 14.4336C174.695 14.4336 175.297 14.5339 175.844 14.7344C176.391 14.9258 176.86 15.2311 177.252 15.6504C177.653 16.0605 177.963 16.5983 178.182 17.2637C178.4 17.9199 178.51 18.7083 178.51 19.6289V29.5H174.572V20.0664C174.572 19.3919 174.481 18.8724 174.299 18.5078C174.117 18.1432 173.857 17.888 173.52 17.7422C173.191 17.5964 172.795 17.5234 172.33 17.5234C171.82 17.5234 171.373 17.6283 170.99 17.8379C170.617 18.0475 170.307 18.3392 170.061 18.7129C169.814 19.0775 169.632 19.5059 169.514 19.998C169.395 20.4902 169.336 21.0189 169.336 21.584ZM178.141 21.1328L176.732 21.3105C176.732 20.3444 176.851 19.4466 177.088 18.6172C177.334 17.7878 177.694 17.0586 178.168 16.4297C178.651 15.8008 179.248 15.3132 179.959 14.9668C180.67 14.6113 181.49 14.4336 182.42 14.4336C183.131 14.4336 183.778 14.5384 184.361 14.748C184.945 14.9486 185.441 15.2721 185.852 15.7188C186.271 16.1562 186.59 16.7305 186.809 17.4414C187.036 18.1523 187.15 19.0228 187.15 20.0527V29.5H183.199V20.0527C183.199 19.3691 183.108 18.8496 182.926 18.4941C182.753 18.1296 182.497 17.8789 182.16 17.7422C181.832 17.5964 181.44 17.5234 180.984 17.5234C180.51 17.5234 180.096 17.6191 179.74 17.8105C179.385 17.9928 179.089 18.248 178.852 18.5762C178.615 18.9043 178.437 19.2871 178.318 19.7246C178.2 20.153 178.141 20.6224 178.141 21.1328Z" fill="white"/>
</svg>
