<svg viewBox="0 0 32 32" xmlns="http://www.w3.org/2000/svg">
<path fill-rule="evenodd" clip-rule="evenodd" d="M16 5C9.92487 5 5 9.92487 5 16C5 22.0751 9.92487 27 16 27C22.0751 27 27 22.0751 27 16C27 9.92487 22.0751 5 16 5ZM3 16C3 8.8203 8.8203 3 16 3C23.1797 3 29 8.8203 29 16C29 23.1797 23.1797 29 16 29C8.8203 29 3 23.1797 3 16Z" />
<path fill-rule="evenodd" clip-rule="evenodd" d="M16 11C13.7909 11 12 12.7909 12 15C12 17.2091 13.7909 19 16 19C18.2091 19 20 17.2091 20 15C20 12.7909 18.2091 11 16 11ZM10 15C10 11.6863 12.6863 9 16 9C19.3137 9 22 11.6863 22 15C22 18.3137 19.3137 21 16 21C12.6863 21 10 18.3137 10 15Z"/>
<path fill-rule="evenodd" clip-rule="evenodd" d="M16 20.9993C14.5226 20.9993 13.0741 21.4084 11.815 22.1812C10.5559 22.954 9.53543 24.0604 8.86664 25.3777C8.61663 25.8702 8.01474 26.0667 7.52228 25.8167C7.02983 25.5667 6.83329 24.9648 7.08331 24.4723C7.9193 22.8257 9.19492 21.4427 10.7688 20.4767C12.3426 19.5106 14.1533 18.9993 16 18.9993C17.8467 18.9993 19.6573 19.5106 21.2312 20.4767C22.805 21.4427 24.0807 22.8257 24.9166 24.4723C25.1667 24.9648 24.9701 25.5667 24.4777 25.8167C23.9852 26.0667 23.3833 25.8702 23.1333 25.3777C22.4645 24.0604 21.444 22.954 20.1849 22.1812C18.9258 21.4084 17.4773 20.9993 16 20.9993Z" />
</svg>
