<svg width="24" height="25" viewBox="0 0 24 25" fill="none" xmlns="http://www.w3.org/2000/svg">
<path fill-rule="evenodd" clip-rule="evenodd" d="M4.5 6.5C4.5 5.67157 5.17157 5 6 5H8.25C9.07843 5 9.75 5.67157 9.75 6.5V18.5C9.75 19.3284 9.07843 20 8.25 20H6C5.17157 20 4.5 19.3284 4.5 18.5V6.5ZM8.25 6.5H6V18.5H8.25V6.5Z" fill="#00875F"/>
<path fill-rule="evenodd" clip-rule="evenodd" d="M14.25 6.5C14.25 5.67157 14.9216 5 15.75 5H18C18.8284 5 19.5 5.67157 19.5 6.5V18.5C19.5 19.3284 18.8284 20 18 20H15.75C14.9216 20 14.25 19.3284 14.25 18.5V6.5ZM18 6.5H15.75V18.5H18V6.5Z" fill="#00875F"/>
<path fill-rule="evenodd" clip-rule="evenodd" d="M18 8C18 7.58579 18.3358 7.25 18.75 7.25H21C21.3978 7.25 21.7794 7.40804 22.0607 7.68934C22.342 7.97065 22.5 8.35218 22.5 8.75V16.25C22.5 16.6478 22.342 17.0294 22.0607 17.3107C21.7794 17.592 21.3978 17.75 21 17.75H18.75C18.3358 17.75 18 17.4142 18 17C18 16.5858 18.3358 16.25 18.75 16.25H21L21 8.75L18.75 8.75C18.3358 8.75 18 8.41421 18 8Z" fill="#00875F"/>
<path fill-rule="evenodd" clip-rule="evenodd" d="M1.93934 7.68934C2.22064 7.40804 2.60217 7.25 3 7.25H5.25C5.66421 7.25 6 7.58579 6 8C6 8.41421 5.66421 8.75 5.25 8.75L3 8.75V16.25H5.25C5.66421 16.25 6 16.5858 6 17C6 17.4142 5.66421 17.75 5.25 17.75H3C2.60218 17.75 2.22065 17.592 1.93934 17.3107C1.65803 17.0294 1.5 16.6478 1.5 16.25V8.75C1.5 8.35218 1.65804 7.97064 1.93934 7.68934Z" fill="#00875F"/>
<path fill-rule="evenodd" clip-rule="evenodd" d="M8.25 12.5C8.25 12.0858 8.58579 11.75 9 11.75H15C15.4142 11.75 15.75 12.0858 15.75 12.5C15.75 12.9142 15.4142 13.25 15 13.25H9C8.58579 13.25 8.25 12.9142 8.25 12.5Z" fill="#00875F"/>
<path fill-rule="evenodd" clip-rule="evenodd" d="M21 12.5C21 12.0858 21.3358 11.75 21.75 11.75H23.25C23.6642 11.75 24 12.0858 24 12.5C24 12.9142 23.6642 13.25 23.25 13.25H21.75C21.3358 13.25 21 12.9142 21 12.5Z" fill="#00875F"/>
<path fill-rule="evenodd" clip-rule="evenodd" d="M0 12.5C0 12.0858 0.335786 11.75 0.75 11.75H2.25C2.66421 11.75 3 12.0858 3 12.5C3 12.9142 2.66421 13.25 2.25 13.25H0.75C0.335786 13.25 0 12.9142 0 12.5Z" fill="#00875F"/>
</svg>
