<svg width="18" height="18" viewBox="0 0 18 18" fill="none" xmlns="http://www.w3.org/2000/svg">
<path fill-rule="evenodd" clip-rule="evenodd" d="M8.99297 1.6875C8.21632 1.6875 7.58672 2.3171 7.58672 3.09375C7.58672 3.8704 8.21632 4.5 8.99297 4.5C9.76962 4.5 10.3992 3.8704 10.3992 3.09375C10.3992 2.3171 9.76962 1.6875 8.99297 1.6875ZM6.46172 3.09375C6.46172 1.69578 7.59499 0.5625 8.99297 0.5625C10.3909 0.5625 11.5242 1.69578 11.5242 3.09375C11.5242 4.49172 10.3909 5.625 8.99297 5.625C7.59499 5.625 6.46172 4.49172 6.46172 3.09375Z" fill="#7C7C8A"/>
<path fill-rule="evenodd" clip-rule="evenodd" d="M7.30547 5.625H10.6817C10.9403 5.62555 11.1962 5.67722 11.4347 5.77704C11.6733 5.87685 11.8897 6.02285 12.0716 6.20662C12.0874 6.2225 12.1021 6.2393 12.1158 6.25694L14.8952 9.82946C15.1153 10.0978 15.2284 10.4382 15.2125 10.7852C15.1966 11.1356 15.0502 11.4674 14.8021 11.7154C14.5541 11.9635 14.2223 12.1098 13.8719 12.1258C13.5251 12.1417 13.1848 12.0286 12.9165 11.8088L11.9011 11.021L13.292 15.4196C13.3652 15.5739 13.4097 15.7404 13.4232 15.9109C13.4382 16.1001 13.4147 16.2904 13.3542 16.4703C13.2937 16.6501 13.1974 16.8159 13.0712 16.9576C12.9449 17.0993 12.7913 17.2139 12.6195 17.2946C12.4478 17.3754 12.2615 17.4205 12.0718 17.4273C11.8822 17.4341 11.6931 17.4025 11.516 17.3343C11.3389 17.2661 11.1775 17.1628 11.0413 17.0305C10.9181 16.9108 10.818 16.7696 10.7458 16.614L8.99297 13.8533L7.23472 16.6226C7.15772 16.7755 7.05343 16.9132 6.92688 17.0289C6.79034 17.1537 6.63055 17.2503 6.45663 17.3134C6.28272 17.3764 6.09809 17.4046 5.91329 17.3963C5.7285 17.388 5.54714 17.3434 5.37959 17.265C5.21203 17.1866 5.06156 17.0759 4.93676 16.9394C4.81197 16.8028 4.71529 16.643 4.65224 16.4691C4.5892 16.2952 4.56103 16.1106 4.56934 15.9258C4.57703 15.7548 4.61582 15.5867 4.6837 15.4298L6.08219 11.023L5.07819 11.802C4.81386 12.0345 4.47166 12.1595 4.11913 12.1519C3.75822 12.1441 3.41412 11.9978 3.15811 11.7433C2.90209 11.4888 2.75375 11.1456 2.74382 10.7847C2.73409 10.4315 2.85771 10.0878 3.08957 9.82187L5.86307 6.25694C5.87774 6.23808 5.8936 6.22018 5.91055 6.20334C6.28073 5.8355 6.7806 5.6278 7.30246 5.62501L7.30547 5.625ZM7.30717 6.75C7.09132 6.75148 6.88421 6.83361 6.72621 6.97961L3.96662 10.5267C3.95832 10.5373 3.94963 10.5477 3.94058 10.5577C3.89225 10.6114 3.86641 10.6816 3.86839 10.7537C3.87038 10.8259 3.90005 10.8946 3.95125 10.9455C4.00245 10.9964 4.07127 11.0256 4.14346 11.0272C4.21564 11.0287 4.28566 11.0025 4.33901 10.9538C4.35001 10.9438 4.3614 10.9342 4.37316 10.9251L6.82004 9.02667C7.01459 8.87572 7.28472 8.86887 7.48668 9.00976C7.68864 9.15065 7.77548 9.40653 7.701 9.64124L5.74631 15.8006C5.73891 15.8239 5.73001 15.8467 5.71965 15.8689C5.70386 15.9026 5.69488 15.9391 5.6932 15.9763C5.69153 16.0135 5.6972 16.0507 5.7099 16.0857C5.72259 16.1208 5.74206 16.1529 5.76719 16.1804C5.79232 16.2079 5.82262 16.2302 5.85636 16.246C5.89009 16.2618 5.92661 16.2708 5.96382 16.2724C6.00104 16.2741 6.03822 16.2684 6.07323 16.2557C6.10825 16.243 6.14043 16.2236 6.16792 16.1984C6.19542 16.1733 6.2177 16.143 6.23348 16.1093C6.24366 16.0875 6.25523 16.0664 6.2681 16.0462L8.5181 12.5024C8.6213 12.3399 8.80045 12.2414 8.99297 12.2414C9.1855 12.2414 9.36465 12.3399 9.46784 12.5024L11.7178 16.0462C11.7349 16.073 11.7496 16.1012 11.7619 16.1305C11.7765 16.1655 11.7981 16.1972 11.8253 16.2237C11.8526 16.2501 11.8848 16.2708 11.9203 16.2844C11.9557 16.2981 11.9935 16.3044 12.0314 16.303C12.0694 16.3017 12.1066 16.2927 12.141 16.2765C12.1753 16.2604 12.206 16.2374 12.2313 16.2091C12.2566 16.1808 12.2758 16.1476 12.2879 16.1116C12.3 16.0757 12.3047 16.0376 12.3017 15.9998C12.2987 15.9619 12.2881 15.9251 12.2705 15.8915C12.2551 15.8622 12.2424 15.8316 12.2324 15.8001L10.2848 9.64069C10.2106 9.406 10.2976 9.15032 10.4995 9.00959C10.7014 8.86887 10.9714 8.87579 11.1659 9.02667L13.6128 10.9251C13.6179 10.9291 13.6229 10.9331 13.6278 10.9372C13.6818 10.9821 13.7505 11.0052 13.8206 11.002C13.8907 10.9988 13.957 10.9695 14.0066 10.9199C14.0562 10.8703 14.0855 10.8039 14.0887 10.7339C14.0919 10.6638 14.0688 10.595 14.0239 10.5411C14.02 10.5364 14.0161 10.5315 14.0123 10.5267L11.2512 6.97763C11.1781 6.90881 11.0932 6.85365 11.0005 6.81485C10.8989 6.77234 10.7899 6.7503 10.6798 6.75H7.30717Z" fill="#7C7C8A"/>
</svg>
