<svg viewBox="0 0 32 32" xmlns="http://www.w3.org/2000/svg">
<path fill-rule="evenodd" clip-rule="evenodd" d="M16 9C16.5523 9 17 9.44772 17 10V16C17 16.5523 16.5523 17 16 17C15.4477 17 15 16.5523 15 16V10C15 9.44772 15.4477 9 16 9Z" />
<path fill-rule="evenodd" clip-rule="evenodd" d="M15.1338 15.5003C15.4098 15.0219 16.0214 14.8578 16.4997 15.1338L21.6997 18.1338C22.1781 18.4098 22.3422 19.0213 22.0662 19.4997C21.7902 19.9781 21.1787 20.1422 20.7003 19.8662L15.5003 16.8662C15.0219 16.5902 14.8578 15.9786 15.1338 15.5003Z" />
<path fill-rule="evenodd" clip-rule="evenodd" d="M3.97498 6.46252C4.52726 6.46252 4.97498 6.91024 4.97498 7.46252V11.4625H8.97498C9.52726 11.4625 9.97498 11.9102 9.97498 12.4625C9.97498 13.0148 9.52726 13.4625 8.97498 13.4625H3.97498C3.42269 13.4625 2.97498 13.0148 2.97498 12.4625V7.46252C2.97498 6.91024 3.42269 6.46252 3.97498 6.46252Z" />
<path fill-rule="evenodd" clip-rule="evenodd" d="M13.6616 4.2313C15.9897 3.76748 18.403 4.00455 20.5963 4.91251C22.7895 5.82048 24.6643 7.35854 25.9833 9.33215C27.3023 11.3057 28.0063 13.6262 28.0063 16C28.0063 18.3738 27.3023 20.6943 25.9833 22.6679C24.6643 24.6415 22.7895 26.1795 20.5963 27.0875C18.403 27.9955 15.9897 28.2325 13.6616 27.7687C11.3336 27.3049 9.19542 26.161 7.51758 24.4818C7.12722 24.0911 7.12747 23.458 7.51816 23.0676C7.90884 22.6772 8.54201 22.6775 8.93237 23.0682C10.3306 24.4675 12.1124 25.4207 14.0524 25.8073C15.9925 26.1938 18.0035 25.9962 19.8313 25.2396C21.659 24.4829 23.2213 23.2012 24.3205 21.5566C25.4196 19.9119 26.0063 17.9782 26.0063 16C26.0063 14.0218 25.4196 12.0881 24.3205 10.4435C23.2213 8.79879 21.659 7.51707 19.8313 6.76043C18.0035 6.00379 15.9925 5.80624 14.0524 6.19275C12.1124 6.57926 10.3306 7.53248 8.93237 8.93182L8.93104 8.93315L4.68104 13.1707C4.28994 13.5606 3.65678 13.5597 3.26683 13.1686C2.87688 12.7775 2.87781 12.1443 3.26891 11.7544L7.51758 7.51819C7.51781 7.51796 7.51803 7.51774 7.51826 7.51751C9.19599 5.83867 11.3339 4.69505 13.6616 4.2313Z" />
</svg>
