<svg width="24" height="25" viewBox="0 0 24 25" fill="none" xmlns="http://www.w3.org/2000/svg">
<path fill-rule="evenodd" clip-rule="evenodd" d="M18.2197 3.71967C18.5126 3.42678 18.9874 3.42678 19.2803 3.71967L21.5303 5.96967C21.8232 6.26256 21.8232 6.73744 21.5303 7.03033L19.2803 9.28033C18.9874 9.57322 18.5126 9.57322 18.2197 9.28033C17.9268 8.98744 17.9268 8.51256 18.2197 8.21967L19.9393 6.5L18.2197 4.78033C17.9268 4.48744 17.9268 4.01256 18.2197 3.71967Z" fill="#00875F"/>
<path fill-rule="evenodd" clip-rule="evenodd" d="M8.99883 5.75L9 5.75L21 5.75C21.4142 5.75 21.75 6.08579 21.75 6.5C21.75 6.91421 21.4142 7.25 21 7.25H9.00061C7.60878 7.25232 6.27461 7.80624 5.29043 8.79043C4.30611 9.77474 3.75217 11.1091 3.75 12.5012C3.74935 12.9154 3.41304 13.2506 2.99883 13.25C2.58462 13.2494 2.24936 12.913 2.25 12.4988C2.25279 10.7098 2.96472 8.99482 4.22977 7.72977C5.49481 6.46472 7.20979 5.75279 8.99883 5.75Z" fill="#00875F"/>
<path fill-rule="evenodd" clip-rule="evenodd" d="M5.78033 15.7197C6.07322 16.0126 6.07322 16.4874 5.78033 16.7803L4.06066 18.5L5.78033 20.2197C6.07322 20.5126 6.07322 20.9874 5.78033 21.2803C5.48744 21.5732 5.01256 21.5732 4.71967 21.2803L2.46967 19.0303C2.17678 18.7374 2.17678 18.2626 2.46967 17.9697L4.71967 15.7197C5.01256 15.4268 5.48744 15.4268 5.78033 15.7197Z" fill="#00875F"/>
<path fill-rule="evenodd" clip-rule="evenodd" d="M21.0012 11.75C21.4154 11.7506 21.7506 12.087 21.75 12.5012C21.7472 14.2902 21.0353 16.0052 19.7702 17.2702C18.5052 18.5353 16.7902 19.2472 15.0012 19.25L3 19.25C2.58579 19.25 2.25 18.9142 2.25 18.5C2.25 18.0858 2.58579 17.75 3 17.75H14.9995C16.3913 17.7477 17.7254 17.1937 18.7096 16.2096C19.6939 15.2253 20.2478 13.8909 20.25 12.4988C20.2506 12.0846 20.587 11.7494 21.0012 11.75Z" fill="#00875F"/>
</svg>
